<svg width="16" height="16" viewBox="0 0 16 16" fill="none" xmlns="http://www.w3.org/2000/svg">
<path d="M13 3L12.3326 13.0107C12.2741 13.8875 12.2449 14.3259 12.0556 14.6583C11.8888 14.951 11.6373 15.1863 11.3342 15.3332C10.99 15.5 10.5506 15.5 9.67181 15.5H6.32812C5.44937 15.5 5.01 15.5 4.66572 15.3332C4.36262 15.1863 4.11114 14.951 3.94441 14.6583C3.75504 14.3259 3.72581 13.8875 3.66736 13.0107L2.99998 3M1.33331 3H14.6666M11.3333 3L11.1078 2.32339C10.8892 1.66771 10.7799 1.33987 10.5772 1.09748C10.3982 0.883442 10.1684 0.717767 9.90873 0.61565C9.61465 0.5 9.26915 0.5 8.57798 0.5H7.42198C6.73081 0.5 6.38531 0.5 6.09124 0.61565C5.83158 0.717767 5.60171 0.883442 5.42272 1.09748C5.22002 1.33987 5.11075 1.66771 4.89218 2.32339L4.66665 3" stroke="#F4F4F5" stroke-linecap="round" stroke-linejoin="round"/>
</svg>
